HIERARCHY
ROOT Hips
{
  OFFSET 5.70366 102.999 -1.77653
  CHANNELS 6 Xposition Yposition Zposition Zrotation Xrotation Yrotation
  JOINT RightUpLeg
  {
    OFFSET -8.9458 -8.66707 0.101652
    CHANNELS 3 Zrotation Xrotation Yrotation
    JOINT RightLeg
    {
      OFFSET 0 -44.4227 1.3727
      CHANNELS 3 Zrotation Xrotation Yrotation
      JOINT RightFoot
      {
        OFFSET 0.253549 -42.0924 -1.46059
        CHANNELS 3 Zrotation Xrotation Yrotation
        JOINT RightToes
        {
          OFFSET 0.04 -4.41509 8.4991
          CHANNELS 3 Zrotation Xrotation Yrotation
          End Site
          {
            OFFSET -0.08 -0.137448 9.77979
          }
        }
      }
    }
  }
  JOINT Spine
  {
    OFFSET 0 11.8905 0
    CHANNELS 3 Zrotation Xrotation Yrotation
    JOINT Spine1
    {
      OFFSET 0 25.6574 0.127663
      CHANNELS 3 Zrotation Xrotation Yrotation
      JOINT HEad
      {
        OFFSET 0 8.73416 0.011341
        CHANNELS 3 Zrotation Xrotation Yrotation
        End Site
        {
          OFFSET -0.29 12.7742 2.51395
        }
      }
      JOINT LeftShoulder1
      {
        OFFSET 8.99 -0.362252 -0.22
        CHANNELS 3 Zrotation Xrotation Yrotation
        JOINT LeftArm
        {
          OFFSET 10.2827 -0.00337999 0.322123
          CHANNELS 3 Zrotation Xrotation Yrotation
          JOINT LeftForeArm
          {
            OFFSET 26.2597 0.099144 -1.42434
            CHANNELS 3 Zrotation Xrotation Yrotation
            JOINT LeftHand
            {
              OFFSET 22.0902 0.085362 1.02216
              CHANNELS 3 Zrotation Xrotation Yrotation
              End Site
              {
                OFFSET 13.419 -0.6 1.50291
              }
            }
          }
        }
      }
      JOINT RightShoulder
      {
        OFFSET -8.99 -0.362252 -0.22
        CHANNELS 3 Zrotation Xrotation Yrotation
        JOINT RightArm
        {
          OFFSET -10.2827 -0.00338 0.322123
          CHANNELS 3 Zrotation Xrotation Yrotation
          JOINT RightForeArm
          {
            OFFSET -26.364 0.099144 -1.42434
            CHANNELS 3 Zrotation Xrotation Yrotation
            JOINT RightHand
            {
              OFFSET -22.0324 0.085362 1.02216
              CHANNELS 3 Zrotation Xrotation Yrotation
              End Site
              {
                OFFSET -13.3284 -0.6 1.50291
              }
            }
          }
        }
      }
    }
  }
  JOINT LeftUpLeg
  {
    OFFSET 8.9458 -8.66707 0.101652
    CHANNELS 3 Zrotation Xrotation Yrotation
    JOINT LeftLeg
    {
      OFFSET 0 -44.4227 1.3727
      CHANNELS 3 Zrotation Xrotation Yrotation
      JOINT LeftFoot
      {
        OFFSET -0.253549 -42.0924 -1.46059
        CHANNELS 3 Zrotation Xrotation Yrotation
        JOINT LeftToes
        {
          OFFSET -0.04 -4.41509 8.4991
          CHANNELS 3 Zrotation Xrotation Yrotation
          End Site
          {
            OFFSET 0.08 -0.047448 9.77979
          }
        }
      }
    }
  }
}
MOTION
Frames:	7
Frame Time:	0.0416667
-205.127 104.303 -1.7971 -1.45624 -0.874763 87.6286 -0.969711 -3.34277 -2.11328 -1.69462 12.1645 -3.01511 -3.31125 -6.104 -0.121102 0.0462048 0.00053089 0.662642 0.696763 -2.08104 0.625932 -3.50174 4.38926 1.31478 10.2168 3.91511 -3.57683 -34.1767 -3.6805 12.7953 -44.9201 -17.4337 -13.8739 -9.19576 57.7859 -6.62235 1.77027 9.81826 -4.76513 37.9291 0.812471 -2.34911 41.2072 0.931457 11.2689 -0.568748 32.7895 21.0771 0.695955 9.97995 1.40391 -1.29675 -2.74266 2.42409 2.35124 10.0971 25.2894 0.555423 -3.96959 -0.00203482 -1.30212e-009 8.75243e-006 -1.4665e-008 
-205.127 104.303 -1.71733 -1.35444 -0.848902 87.4868 -0.961397 -3.29476 -2.1099 -1.68571 12.2707 -2.87456 -3.37506 -6.1599 -0.121115 0.0462048 0.00053089 0.662642 0.693613 -2.07253 0.483592 -3.54012 4.55604 1.17899 10.3123 3.90361 -2.98465 -34.1363 -3.7033 12.8604 -45.0586 -17.1277 -14.0063 -9.16301 57.2307 -6.7299 1.74296 9.81532 -4.97054 37.898 0.904969 -2.13914 41.3143 0.0699391 10.9921 -0.494492 33.5132 20.743 0.679186 9.97937 1.53612 -1.27052 -2.55785 2.48831 2.33435 9.99132 25.3785 0.509667 -3.93497 -0.00203474 -1.30212e-009 8.75243e-006 -1.4665e-008 
-205.129 104.306 -1.54593 -1.27277 -0.802235 87.1892 -0.892548 -3.35252 -2.01704 -1.71536 12.5065 -2.68481 -3.48244 -6.2319 -0.121131 0.0462048 0.00053089 0.662642 0.695483 -2.04656 0.32667 -3.55088 4.70744 1.02007 10.1002 3.55728 -2.65889 -34.0703 -3.71255 12.8983 -45.3988 -16.1497 -14.464 -9.23403 56.0345 -6.88392 1.70734 9.81487 -5.12618 37.8202 0.970005 -1.98997 41.4971 -1.61867 10.3624 -0.394025 34.7662 20.1948 0.762311 9.97943 1.52327 -1.17452 -2.37703 2.62316 2.26521 9.87519 25.5041 0.313299 -3.89446 -0.00203464 -1.30212e-009 8.75243e-006 -1.4665e-008 
-205.147 104.315 -1.33667 -1.31096 -0.758205 87.0766 -0.808967 -3.44332 -1.96431 -1.71085 12.5805 -2.62526 -3.54743 -6.27264 -0.121141 0.0462048 0.00053089 0.662642 0.667175 -2.04541 0.104428 -3.44829 4.76636 0.775213 9.95134 3.42392 -2.28 -34.0154 -3.70674 12.8965 -45.6036 -13.9756 -14.9964 -8.83971 53.8304 -7.82202 1.71468 9.81476 -5.16834 37.7278 0.964648 -1.99826 41.564 -3.57479 9.5423 -0.233961 36.3918 19.4875 0.668872 9.9798 1.43842 -1.06574 -2.37673 2.69592 2.22589 9.79032 25.5556 0.278509 -3.80161 -0.00208625 -1.30212e-009 8.75243e-006 -1.4665e-008 
-205.164 104.317 -1.08086 -1.35344 -0.71172 87.0415 -0.73854 -3.46577 -1.99326 -1.63983 12.5506 -2.5285 -3.69864 -6.39943 -0.122739 0.0462048 0.00053089 0.662642 0.593807 -1.93425 -0.194262 -3.30938 4.69963 0.447037 10.0003 3.39331 -1.89073 -34.0079 -3.69947 12.8804 -45.2138 -10.0246 -15.2289 -7.76139 49.342 -9.92446 1.87855 9.79632 -5.62044 37.7672 0.926583 -2.08585 41.3717 -5.85391 8.60588 -0.123402 38.6443 18.6952 0.727209 9.98097 1.13278 -0.952475 -2.3981 2.72911 2.23724 9.73235 25.5589 0.2128 -3.68241 -0.000778302 -1.30212e-009 8.75243e-006 -1.4665e-008 
-205.154 104.301 -0.75381 -1.35395 -0.610417 86.6361 -0.59888 -3.64514 -1.8094 -1.71707 12.8859 -2.29655 -3.9527 -6.71461 -0.132665 0.0462048 0.00053089 0.662642 0.507278 -1.72057 -0.31602 -3.24264 4.56812 0.309076 9.95228 3.1003 -1.87659 -34.0379 -3.67479 12.8128 -44.1821 -3.96738 -15.3363 -6.52891 41.8799 -12.71 2.15664 9.76158 -6.45115 37.9902 0.870299 -2.221 40.7719 -8.09241 7.4645 -0.274381 41.0009 18.187 1.17709 9.98281 0.225998 -0.829247 -2.3742 2.83342 2.21342 9.80288 25.7897 -0.240984 -3.70471 0.0150615 -1.30212e-009 8.75243e-006 -1.4665e-008 
-205.118 104.26 -0.358655 -1.31499 -0.438954 86 -0.398929 -3.95187 -1.38774 -1.94495 13.5496 -2.12001 -4.14476 -7.18457 -0.151268 0.0462048 0.00053089 0.662642 0.376793 -1.56002 -0.325569 -3.19898 4.58327 0.295724 9.92094 2.85164 -1.72686 -33.9199 -3.62358 12.7132 -42.9718 3.3547 -15.596 -5.32685 32.6056 -15.884 2.31471 9.73701 -7.18911 38.1627 0.85799 -2.2547 39.9376 -10.1911 6.07086 -0.31033 42.9481 17.642 1.42209 9.98223 -0.65996 -0.740042 -2.31293 2.98343 2.16412 9.97359 26.3699 -0.591446 -3.7896 0.027335 -1.30212e-009 8.75243e-006 -1.4665e-008 
